# xmcd
#
# Track frame offsets:
#	150
#	17942
#	40617
#	54439
#	72730
#	87825
#	104452
#	118052
#	133400
#	152867
#	168790
#	184747
#	202747
#
# Disc length: 3046 seconds
#
# Revision: 0
# Processed by: cddbd v1.4PL0 Copyright (c) Steve Scherf et al.
# Submitted via: EasyCDDAExtractor 5.0.4.1
#
DISCID=b20be40d
DTITLE=Various Artist - Efes Pilsen Blues Classics
DYEAR=2002
DGENRE=Blues
TTITLE0=CJ Chenier&The Red Hot Louisiana Band - Louisiana Down Home Blues
TTITLE1=CJ Chenier - It's About Time
TTITLE2=CJ Chenier - Man Smart,Woman Smarter
TTITLE3=CJ Chenier - Everyday I Have to Cry Some
TTITLE4=CJ Chenier - Too Much Fun
TTITLE5=CJ Chenier - Au Contraire,Mon Frere
TTITLE6=CJ Chenier - Zydeco Cha Cha
TTITLE7=CJ Chenier - Johnny Can't Dance
TTITLE8=CJ Chenier - Don't You Just Know It
TTITLE9=CJ Chenier - Mixed Up and Confused
TTITLE10=CJ Chenier - The Right to Walk Away
TTITLE11=CJ Chenier - You Used to Call Me
TTITLE12=CJ Chenier - Got You on My Mind
EXTD=
EXTT0=
EXTT1=
EXTT2=
EXTT3=
EXTT4=
EXTT5=
EXTT6=
EXTT7=
EXTT8=
EXTT9=
EXTT10=
EXTT11=
EXTT12=
PLAYORDER=
